<svg width="40" height="40" viewBox="0 0 40 40" fill="none" xmlns="http://www.w3.org/2000/svg">
<path d="M20 3.33331C10.8333 3.33331 3.33334 10.8333 3.33334 20C3.33334 29.1666 10.8333 36.6666 20 36.6666C29.1667 36.6666 36.6667 29.1666 36.6667 20C36.6667 10.8333 29.1667 3.33331 20 3.33331ZM14.05 24.0666L11.7833 23.05C12.25 22.1166 12.5 21.1166 12.5 20.0833C12.5 18.9833 12.25 17.9333 11.7833 16.95L14.05 15.9333C14.6833 17.2833 15 18.6666 15 20.0833C15 21.3333 14.6833 22.6666 14.05 24.0666ZM19.2167 26.5666L17.0333 25.4833C17.9167 23.6 18.3333 21.6666 18.3333 19.7666C18.3333 17.8833 17.9167 16.15 17.0333 14.5166L19.2167 13.2666C20.3167 15.2 20.8333 17.3666 20.8333 19.7666C20.8333 22.2166 20.3167 24.4833 19.2167 26.5666ZM24.4667 28.9166L22.1833 27.75C23.5 25.1833 24.1667 22.6166 24.1667 20C24.1667 17.3833 23.5 14.7833 22.1833 12.1833L24.4667 11.0833C25.9167 14.05 26.6667 17.0333 26.6667 20C26.6667 23.0333 25.9167 26 24.4667 28.9166Z" fill="white" fill-opacity="0.6"/>
</svg>
