<svg width="40" height="40" viewBox="0 0 40 40" fill="none" xmlns="http://www.w3.org/2000/svg">
<path d="M21.6667 21.6667H35V31.6667C35 32.5833 34.6739 33.3683 34.0217 34.0217C33.3694 34.675 32.5844 35.0011 31.6667 35H21.6667V21.6667ZM21.6667 18.3333V5H31.6667C32.5833 5 33.3683 5.32667 34.0217 5.98C34.675 6.63333 35.0011 7.41778 35 8.33333V18.3333H21.6667ZM18.3333 18.3333H5V8.33333C5 7.41667 5.32667 6.63222 5.98 5.98C6.63333 5.32778 7.41778 5.00111 8.33333 5H18.3333V18.3333ZM18.3333 21.6667V35H8.33333C7.41667 35 6.63222 34.6739 5.98 34.0217C5.32778 33.3694 5.00111 32.5844 5 31.6667V21.6667H18.3333Z" fill="white" fill-opacity="0.6"/>
</svg>
