<svg width="30" height="30" viewBox="0 0 30 30" fill="none" xmlns="http://www.w3.org/2000/svg">
<path d="M21.4453 4.57034V6.6299C21.4453 6.77053 21.5068 6.90236 21.6152 6.99026C21.8643 7.19533 22.1045 7.41506 22.333 7.64651C23.2806 8.59309 24.0357 9.71435 24.5566 10.9483C25.0966 12.2266 25.3736 13.6006 25.3711 14.9883C25.3711 16.3916 25.0957 17.751 24.5566 19.0283C24.0357 20.2623 23.2806 21.3835 22.333 22.3301C21.3886 23.2784 20.2694 24.0345 19.0371 24.5567C17.7598 25.0987 16.4033 25.3711 15 25.3711C13.5967 25.3711 12.2402 25.0957 10.9629 24.5567C9.72949 24.0352 8.61914 23.2852 7.66699 22.3301C6.71484 21.375 5.96484 20.2647 5.44336 19.0283C4.9043 17.751 4.6289 16.3916 4.6289 14.9883C4.6289 13.585 4.90137 12.2256 5.44336 10.9483C5.96484 9.71194 6.71484 8.60158 7.66699 7.64651C7.89844 7.41506 8.13867 7.19826 8.38476 6.99026C8.49316 6.90236 8.55469 6.7676 8.55469 6.6299V4.57034C8.55469 4.38577 8.34961 4.27151 8.19433 4.37404C4.70215 6.62111 2.39062 10.5528 2.40234 15.0205C2.41992 22.0401 8.11816 27.668 15.1289 27.5977C22.0283 27.5274 27.5977 21.9082 27.5977 14.9883C27.5977 10.5322 25.2891 6.61819 21.8057 4.37404C21.6504 4.27444 21.4453 4.38577 21.4453 4.57034ZM14.8154 1.96584L11.5342 6.12307C11.4111 6.27834 11.5225 6.50393 11.7187 6.50393H13.9453V15.7031C13.9453 15.8321 14.0508 15.9375 14.1797 15.9375H15.8203C15.9492 15.9375 16.0547 15.8321 16.0547 15.7031V6.50393H18.2812C18.4775 6.50393 18.5889 6.27541 18.4658 6.12307L15.1846 1.96584C15.1626 1.93783 15.1346 1.91517 15.1027 1.89959C15.0707 1.88401 15.0356 1.87592 15 1.87592C14.9644 1.87592 14.9293 1.88401 14.8973 1.89959C14.8654 1.91517 14.8374 1.93783 14.8154 1.96584Z" fill="white"/>
</svg>
