<svg width="40" height="40" viewBox="0 0 40 40" fill="none" xmlns="http://www.w3.org/2000/svg">
<path d="M26.6667 3.33334H13.3333C10.6812 3.33334 8.13764 4.38691 6.26228 6.26228C4.38691 8.13764 3.33334 10.6812 3.33334 13.3333V26.6667C3.33334 29.3188 4.38691 31.8624 6.26228 33.7377C8.13764 35.6131 10.6812 36.6667 13.3333 36.6667H26.6667C29.3188 36.6667 31.8624 35.6131 33.7377 33.7377C35.6131 31.8624 36.6667 29.3188 36.6667 26.6667V13.3333C36.6667 10.6812 35.6131 8.13764 33.7377 6.26228C31.8624 4.38691 29.3188 3.33334 26.6667 3.33334Z" stroke="white" stroke-width="1.499" stroke-miterlimit="1.5" stroke-linecap="round" stroke-linejoin="round" stroke-dasharray="2 2"/>
<path d="M26.6667 8.33334H13.3333C12.0073 8.33334 10.7355 8.86013 9.79781 9.79781C8.86013 10.7355 8.33334 12.0073 8.33334 13.3333V26.6667C8.33334 27.9928 8.86013 29.2645 9.79781 30.2022C10.7355 31.1399 12.0073 31.6667 13.3333 31.6667H26.6667C27.9928 31.6667 29.2645 31.1399 30.2022 30.2022C31.1399 29.2645 31.6667 27.9928 31.6667 26.6667V13.3333C31.6667 12.0073 31.1399 10.7355 30.2022 9.79781C29.2645 8.86013 27.9928 8.33334 26.6667 8.33334Z" fill="white" stroke="white" stroke-width="1.499" stroke-miterlimit="1.5" stroke-linecap="round" stroke-linejoin="round"/>
</svg>
