<svg width="40" height="40" viewBox="0 0 40 40" fill="none" xmlns="http://www.w3.org/2000/svg">
<path d="M9.99999 33.3334C8.6111 33.3334 7.43055 32.8472 6.45832 31.875C5.4861 30.9028 4.99999 29.7222 4.99999 28.3334H1.66666V10C1.66666 9.08335 1.99332 8.29891 2.64666 7.64669C3.29999 6.99446 4.08443 6.6678 4.99999 6.66669H28.3333V13.3334H33.3333L38.3333 20V28.3334H35C35 29.7222 34.5139 30.9028 33.5417 31.875C32.5694 32.8472 31.3889 33.3334 30 33.3334C28.6111 33.3334 27.4305 32.8472 26.4583 31.875C25.4861 30.9028 25 29.7222 25 28.3334H15C15 29.7222 14.5139 30.9028 13.5417 31.875C12.5694 32.8472 11.3889 33.3334 9.99999 33.3334ZM9.99999 30C10.4722 30 10.8683 29.84 11.1883 29.52C11.5083 29.2 11.6678 28.8045 11.6667 28.3334C11.6655 27.8622 11.5055 27.4667 11.1867 27.1467C10.8678 26.8267 10.4722 26.6667 9.99999 26.6667C9.52777 26.6667 9.13221 26.8267 8.81332 27.1467C8.49443 27.4667 8.33443 27.8622 8.33332 28.3334C8.33221 28.8045 8.49221 29.2006 8.81332 29.5217C9.13443 29.8428 9.52999 30.0022 9.99999 30ZM30 30C30.4722 30 30.8683 29.84 31.1883 29.52C31.5083 29.2 31.6678 28.8045 31.6667 28.3334C31.6655 27.8622 31.5055 27.4667 31.1867 27.1467C30.8678 26.8267 30.4722 26.6667 30 26.6667C29.5278 26.6667 29.1322 26.8267 28.8133 27.1467C28.4944 27.4667 28.3344 27.8622 28.3333 28.3334C28.3322 28.8045 28.4922 29.2006 28.8133 29.5217C29.1344 29.8428 29.53 30.0022 30 30ZM28.3333 21.6667H35.4167L31.6667 16.6667H28.3333V21.6667Z" fill="white"/>
</svg>
