<svg width="50" height="50" viewBox="0 0 50 50" fill="none" xmlns="http://www.w3.org/2000/svg">
<g clip-path="url(#clip0_3659_1762)">
<path d="M43.1604 27.2083C43.7456 26.6224 44.0743 25.8281 44.0743 25C44.0743 24.1719 43.7456 23.3776 43.1604 22.7917L31.3771 11.0021C30.7909 10.4158 29.9957 10.0865 29.1667 10.0865C28.3376 10.0865 27.5425 10.4158 26.9563 11.0021C26.37 11.5883 26.0407 12.3834 26.0407 13.2125C26.0407 14.0416 26.37 14.8367 26.9563 15.4229L33.4063 21.875H9.37501C8.54621 21.875 7.75135 22.2042 7.1653 22.7903C6.57925 23.3763 6.25001 24.1712 6.25001 25C6.25001 25.8288 6.57925 26.6236 7.1653 27.2097C7.75135 27.7957 8.54621 28.125 9.37501 28.125H33.4063L26.9563 34.575C26.666 34.8653 26.4357 35.2099 26.2786 35.5891C26.1215 35.9684 26.0407 36.3749 26.0407 36.7854C26.0407 37.1959 26.1215 37.6024 26.2786 37.9817C26.4357 38.3609 26.666 38.7055 26.9563 38.9958C27.2465 39.2861 27.5911 39.5164 27.9704 39.6735C28.3497 39.8306 28.7562 39.9114 29.1667 39.9114C29.5772 39.9114 29.9837 39.8306 30.3629 39.6735C30.7422 39.5164 31.0868 39.2861 31.3771 38.9958L43.1604 27.2083Z" fill="white" fill-opacity="0.9"/>
</g>
<defs>
<clipPath id="clip0_3659_1762">
<rect width="50" height="50" fill="white" transform="matrix(0 1 -1 0 50 0)"/>
</clipPath>
</defs>
</svg>
