<svg width="15" height="15" viewBox="0 0 15 15" fill="none" xmlns="http://www.w3.org/2000/svg">
<g clip-path="url(#clip0_3817_525)">
<path d="M12.9481 8.16243C13.1237 7.98665 13.2223 7.74837 13.2223 7.49993C13.2223 7.25149 13.1237 7.01321 12.9481 6.83743L9.41311 3.30055C9.23724 3.12468 8.99871 3.02588 8.74999 3.02588C8.50127 3.02588 8.26274 3.12468 8.08686 3.30055C7.91099 3.47643 7.81219 3.71496 7.81219 3.96368C7.81219 4.2124 7.91099 4.45093 8.08686 4.6268L10.0219 6.56243H2.81249C2.56385 6.56243 2.32539 6.6612 2.14958 6.83702C1.97376 7.01283 1.87499 7.25129 1.87499 7.49993C1.87499 7.74857 1.97376 7.98703 2.14958 8.16284C2.32539 8.33866 2.56385 8.43743 2.81249 8.43743H10.0219L8.08686 10.3724C7.99978 10.4595 7.9307 10.5629 7.88358 10.6767C7.83645 10.7905 7.81219 10.9124 7.81219 11.0356C7.81219 11.1587 7.83645 11.2807 7.88358 11.3944C7.9307 11.5082 7.99978 11.6116 8.08686 11.6987C8.17395 11.7858 8.27733 11.8548 8.39111 11.902C8.50489 11.9491 8.62684 11.9734 8.74999 11.9734C8.87314 11.9734 8.99509 11.9491 9.10887 11.902C9.22265 11.8548 9.32603 11.7858 9.41311 11.6987L12.9481 8.16243Z" fill="black" fill-opacity="0.7"/>
</g>
<defs>
<clipPath id="clip0_3817_525">
<rect width="15" height="15" fill="white" transform="matrix(0 1 -1 0 15 0)"/>
</clipPath>
</defs>
</svg>
