<svg width="32" height="32" viewBox="0 0 32 32" fill="none" xmlns="http://www.w3.org/2000/svg">
<path d="M16 29.3333C14.1556 29.3333 12.4222 28.9831 10.8 28.2827C9.17778 27.5822 7.76667 26.6324 6.56667 25.4333C5.36667 24.2342 4.41689 22.8231 3.71733 21.2C3.01778 19.5769 2.66755 17.8435 2.66667 16C2.66578 14.1564 3.016 12.4231 3.71733 10.8C4.41867 9.17688 5.36844 7.76577 6.56667 6.56666C7.76489 5.36755 9.176 4.41777 10.8 3.71732C12.424 3.01688 14.1573 2.66666 16 2.66666C17.8427 2.66666 19.576 3.01688 21.2 3.71732C22.824 4.41777 24.2351 5.36755 25.4333 6.56666C26.6316 7.76577 27.5818 9.17688 28.284 10.8C28.9862 12.4231 29.336 14.1564 29.3333 16C29.3307 17.8435 28.9804 19.5769 28.2827 21.2C27.5849 22.8231 26.6351 24.2342 25.4333 25.4333C24.2316 26.6324 22.8204 27.5827 21.2 28.284C19.5796 28.9853 17.8462 29.3351 16 29.3333ZM16 26.6667C18.9778 26.6667 21.5 25.6333 23.5667 23.5667C25.6333 21.5 26.6667 18.9778 26.6667 16C26.6667 13.0222 25.6333 10.5 23.5667 8.43332C21.5 6.36666 18.9778 5.33332 16 5.33332C13.0222 5.33332 10.5 6.36666 8.43333 8.43332C6.36667 10.5 5.33333 13.0222 5.33333 16C5.33333 18.9778 6.36667 21.5 8.43333 23.5667C10.5 25.6333 13.0222 26.6667 16 26.6667ZM10.6667 21.3333V17.2333L19.4333 8.49999L23.5333 12.5667L14.7667 21.3333H10.6667ZM19.4333 13.8667L20.6667 12.5667L19.4333 11.3333L18.1667 12.6L19.4333 13.8667Z" fill="white"/>
</svg>
