<svg width="30" height="30" viewBox="0 0 30 30" fill="none" xmlns="http://www.w3.org/2000/svg">
<path d="M3.75 26.25V20H6.25V23.75H10V26.25H3.75ZM20 26.25V23.75H23.75V20H26.25V26.25H20ZM15 23.75C12.5833 23.75 10.5208 22.8958 8.8125 21.1875C7.10417 19.4792 6.25 17.4167 6.25 15C6.25 12.5833 7.10417 10.5208 8.8125 8.8125C10.5208 7.10417 12.5833 6.25 15 6.25C17.4167 6.25 19.4792 7.10417 21.1875 8.8125C22.8958 10.5208 23.75 12.5833 23.75 15C23.75 17.4167 22.8958 19.4792 21.1875 21.1875C19.4792 22.8958 17.4167 23.75 15 23.75ZM3.75 10V3.75H10V6.25H6.25V10H3.75ZM23.75 10V6.25H20V3.75H26.25V10H23.75Z" fill="white"/>
</svg>
