<svg width="24" height="24" viewBox="0 0 24 24" fill="none" xmlns="http://www.w3.org/2000/svg">
<g clip-path="url(#clip0_3971_4911)">
<path fill-rule="evenodd" clip-rule="evenodd" d="M4.06995 22.978C5.70545 23.111 8.30095 23.25 12.002 23.25C15.7025 23.25 18.2985 23.111 19.934 22.978C21.578 22.8445 22.8465 21.576 22.98 19.932C23.113 18.2965 23.252 15.7005 23.252 12C23.252 8.2995 23.113 5.7035 22.98 4.068C22.8465 2.424 21.578 1.1555 19.934 1.022C18.2985 0.889 15.7025 0.75 12.002 0.75C8.30145 0.75 5.70545 0.889 4.06995 1.022C2.42595 1.1555 1.15745 2.424 1.02395 4.068C0.890953 5.7035 0.751953 8.2995 0.751953 12C0.751953 15.7005 0.890953 18.2965 1.02395 19.932C1.15745 21.576 2.42595 22.8445 4.06995 22.978ZM12.948 8.359C12.241 8.3345 11.628 7.898 11.6 7.1915C11.5935 7.0304 11.5935 6.8691 11.6 6.708C11.6285 6.001 12.2415 5.566 12.9485 5.54C13.966 5.50393 14.9843 5.49159 16.0025 5.503C16.8001 5.50959 17.5629 5.831 18.1248 6.39726C18.6866 6.96352 19.0021 7.72879 19.0025 8.5265L18.998 13.9315C18.9965 15.5875 17.6545 16.932 15.999 16.9715C13.563 17.03 10.863 17.1355 9.14695 17.208C9.13625 17.6083 9.11791 18.0084 9.09195 18.408C9.04945 19.0325 8.45545 19.305 7.95595 18.928C7.4567 18.5484 6.97059 18.1518 6.49845 17.739C5.64195 16.9955 5.15195 16.438 4.87545 16.065C4.75167 15.9039 4.68456 15.7064 4.68456 15.5033C4.68456 15.3001 4.75167 15.1026 4.87545 14.9415C5.15195 14.569 5.64245 14.011 6.49845 13.2675C6.97057 12.8543 7.45669 12.4574 7.95595 12.0775C8.45595 11.7015 9.04945 11.974 9.09145 12.598C9.11195 12.9025 9.13145 13.278 9.14495 13.739C11.2095 13.776 13.6055 13.8645 15.635 13.942C15.7022 13.9446 15.7693 13.9335 15.8321 13.9095C15.895 13.8856 15.9524 13.8491 16.0009 13.8024C16.0493 13.7558 16.0879 13.6998 16.1142 13.6378C16.1405 13.5759 16.154 13.5093 16.154 13.442V8.8755C16.154 8.599 15.93 8.3755 15.654 8.376C15.422 8.3765 15.213 8.378 15.019 8.379C14.2485 8.3825 13.717 8.3855 12.948 8.359Z" fill="white"/>
</g>
<defs>
<clipPath id="clip0_3971_4911">
<rect width="24" height="24" fill="white"/>
</clipPath>
</defs>
</svg>
