<svg width="300" height="300" viewBox="0 0 300 300" fill="none" xmlns="http://www.w3.org/2000/svg">
<g clip-path="url(#clip0_3676_3100)">
<mask id="mask0_3676_3100" style="mask-type:luminance" maskUnits="userSpaceOnUse" x="0" y="0" width="300" height="300">
<path d="M0 0H300V300H0V0Z" fill="white"/>
</mask>
<g mask="url(#mask0_3676_3100)">
<path fill-rule="evenodd" clip-rule="evenodd" d="M155.802 267.991C192.705 267.991 222.803 257.032 222.803 243.594C222.803 230.157 192.705 219.197 155.802 219.197C118.899 219.197 88.7999 230.157 88.7999 243.594C88.7999 257.032 118.899 267.991 155.802 267.991Z" fill="#F5F6F6"/>
</g>
<mask id="mask1_3676_3100" style="mask-type:luminance" maskUnits="userSpaceOnUse" x="0" y="0" width="300" height="300">
<path d="M0 0H300V300H0V0Z" fill="white"/>
</mask>
<g mask="url(#mask1_3676_3100)">
<path fill-rule="evenodd" clip-rule="evenodd" d="M194.696 177.081C195.286 180.67 196.841 181.351 196.841 185.047C196.841 187.3 198.173 187.168 198.211 190.057C198.212 190.187 199.601 191.115 199.48 187.187C199.459 186.497 200.58 185.198 200.58 188.421C200.58 189.604 200.525 190.784 200.525 191.932C202.39 191.932 202.969 188.36 203.257 186.635C203.903 182.764 201.611 182.456 199.697 179.444C199.257 178.751 196.731 173.978 196.281 175.606C195.678 177.793 195.522 177.024 194.686 176.962L194.696 177.081Z" fill="#F28F62"/>
</g>
<mask id="mask2_3676_3100" style="mask-type:luminance" maskUnits="userSpaceOnUse" x="0" y="0" width="300" height="300">
<path d="M0 0H300V300H0V0Z" fill="white"/>
</mask>
<g mask="url(#mask2_3676_3100)">
<path fill-rule="evenodd" clip-rule="evenodd" d="M177.425 231.917C176.949 238.237 174.1 242.985 174.061 243.723C173.796 248.664 179.971 247.769 184.036 249.682C185.644 250.438 192.703 252.487 194.191 251.471C195.941 250.273 196.027 246.251 191.99 245.31C191.113 245.106 183.753 238.45 183.2 237.802C181.913 236.294 178.781 232.588 177.425 231.917ZM127.705 229.167C125.41 231.494 124.595 234.387 120.764 238.245C117.437 241.596 119.018 246.638 122.398 248.702C126.574 251.251 127.729 246.468 128.778 242.963C130.202 238.205 134.819 231.003 128.148 229.126L127.705 229.167Z" fill="#54C6C8"/>
</g>
<mask id="mask3_3676_3100" style="mask-type:luminance" maskUnits="userSpaceOnUse" x="0" y="0" width="300" height="300">
<path d="M0 0H300V300H0V0Z" fill="white"/>
</mask>
<g mask="url(#mask3_3676_3100)">
<path fill-rule="evenodd" clip-rule="evenodd" d="M135.074 91.9963C131.421 86.2399 137.313 81.0454 133.039 76.1467C130.598 73.3508 129.961 70.0804 126.109 77.4949C123.612 82.2995 125.11 83.8267 127.237 88.4667C128.314 90.8149 129.154 88.2435 130.288 93.6085C130.65 95.3158 131.85 99.2449 133.45 95.5163C134.487 93.0999 134.761 94.1949 135.074 91.9963Z" fill="#F28F62"/>
</g>
<mask id="mask4_3676_3100" style="mask-type:luminance" maskUnits="userSpaceOnUse" x="0" y="0" width="300" height="300">
<path d="M0 0H300V300H0V0Z" fill="white"/>
</mask>
<g mask="url(#mask4_3676_3100)">
<path fill-rule="evenodd" clip-rule="evenodd" d="M147.386 171.424C142.113 176.393 126.369 213.558 125.632 228.971C125.239 237.203 131.457 238.426 134.871 232.497C138.089 226.906 141.408 216.999 146.483 208.588C150.629 201.717 151.095 199.359 153.21 196.07C158.685 187.558 161.725 186.584 166.506 209.354C169.224 222.302 168.91 230.854 173.206 236.503C174.077 237.649 175.138 238.675 176.451 239.595C178.144 240.779 180.231 240.882 182.033 239.869C183.834 238.857 184.83 237.02 184.699 234.959C183.106 209.974 186.495 208.478 171.818 177.009C170.428 174.029 167.566 165.197 165.318 163.652L147.386 171.424Z" fill="#F39C0F"/>
</g>
<mask id="mask5_3676_3100" style="mask-type:luminance" maskUnits="userSpaceOnUse" x="0" y="0" width="300" height="300">
<path d="M0 0H300V300H0V0Z" fill="white"/>
</mask>
<g mask="url(#mask5_3676_3100)">
<path fill-rule="evenodd" clip-rule="evenodd" d="M161.599 192.828C164.638 195.191 166.75 198.724 168.349 202.098C170.543 206.726 173.537 231.52 175.887 233.097C175.969 233.152 177.616 237.678 179.588 240.559C178.498 240.589 177.411 240.266 176.451 239.595C175.138 238.675 174.077 237.648 173.206 236.503C168.911 230.854 169.223 222.302 166.506 209.353C164.695 200.736 163.136 195.522 161.599 192.828ZM157.835 190.757L157.835 190.754L157.838 190.756L157.835 190.757ZM147.386 171.424C142.394 176.128 128.023 209.677 125.877 226.321C127.261 225.084 128.271 223.715 128.72 222.183C130.418 216.384 132.9 211.668 134.183 204.782C135.411 198.182 143.68 180.577 150.173 178.293C154.118 176.906 163.684 175.581 160.561 167.468C160.373 166.979 160.121 166.503 159.815 166.037L147.386 171.424Z" fill="#DF8C16"/>
</g>
<mask id="mask6_3676_3100" style="mask-type:luminance" maskUnits="userSpaceOnUse" x="0" y="0" width="300" height="300">
<path d="M0 0H300V300H0V0Z" fill="white"/>
</mask>
<g mask="url(#mask6_3676_3100)">
<path fill-rule="evenodd" clip-rule="evenodd" d="M151.043 159.301C147.303 178.812 152.273 182.225 165.677 180.934C173.39 180.191 174.716 164.403 169.772 161.892C159.606 156.729 162.9 157.29 151.043 159.301Z" fill="#2F2825"/>
</g>
<mask id="mask7_3676_3100" style="mask-type:luminance" maskUnits="userSpaceOnUse" x="0" y="0" width="300" height="300">
<path d="M0 0H300V300H0V0Z" fill="white"/>
</mask>
<g mask="url(#mask7_3676_3100)">
<path fill-rule="evenodd" clip-rule="evenodd" d="M172.346 175.921C167.87 178.427 156.498 177.371 151.928 173.053C145.135 166.638 149.561 159.347 146.861 143.899C145.545 136.368 137.875 123.469 134.856 115.418C133.236 111.098 128.92 101.717 129.848 96.3044C130.728 91.1735 133.925 88.298 140.378 94.5767C143.462 97.578 146.686 114.85 152.278 120.678C166.24 135.234 184.508 127.073 187.939 144.934C189.041 150.671 187.551 147.936 190.13 157.726C192.622 167.189 197.601 172.74 199.194 175.222C200.548 177.334 198.502 182.833 195.046 181.872C191.953 181.01 182.314 176.214 181.439 169.093C180.687 162.976 178.627 160.625 178.371 162.639C177.825 166.937 175.425 174.198 172.346 175.921Z" fill="#54C6C8"/>
</g>
<mask id="mask8_3676_3100" style="mask-type:luminance" maskUnits="userSpaceOnUse" x="0" y="0" width="300" height="300">
<path d="M0 0H300V300H0V0Z" fill="white"/>
</mask>
<g mask="url(#mask8_3676_3100)">
<path fill-rule="evenodd" clip-rule="evenodd" d="M178.371 162.639L178.369 162.66C178.369 162.652 178.37 162.645 178.371 162.639ZM148.069 165.22C147.433 160.139 148.564 153.641 146.861 143.899C145.545 136.368 137.875 123.469 134.855 115.417C134.154 113.544 132.944 110.719 131.875 107.678C134.139 111.662 135.082 113.839 139.833 118.322C141.553 119.946 144.6 136.244 146.89 134.715C149.407 133.032 145.808 124.905 150.282 131.037C154.358 136.626 149.1 144.327 149.1 152.405C149.1 153.88 148.634 160.95 148.069 165.22ZM198.997 179.55C198.238 181.142 196.83 182.367 195.046 181.872C191.953 181.01 182.314 176.214 181.439 169.092C180.75 163.487 178.963 161.045 178.472 162.226C179.064 159.912 179.596 159.965 179.9 156.548C179.937 156.131 180.406 151.003 180.464 150.907C180.509 150.902 180.984 157.599 182.842 162.012C185.111 167.404 184.56 170.57 188.342 175.528C191.563 179.751 195.921 179.827 198.997 179.55Z" fill="#41A6AC"/>
</g>
<mask id="mask9_3676_3100" style="mask-type:luminance" maskUnits="userSpaceOnUse" x="0" y="0" width="300" height="300">
<path d="M0 0H300V300H0V0Z" fill="white"/>
</mask>
<g mask="url(#mask9_3676_3100)">
<path fill-rule="evenodd" clip-rule="evenodd" d="M165.003 131.416C163.474 128.165 166.881 124.272 161.417 121.429C159.23 120.291 160.383 110.092 160.798 107.853C161.63 103.361 161.865 97.1692 168.331 98.7824C169.333 99.0324 169.661 100.601 172.106 101.777C176.212 103.753 178.399 109.576 177.54 114.239C176.984 117.259 175.568 122.222 173.335 124.37C171.56 126.077 172.438 134.127 169.444 134.127C168.139 134.127 164.414 132.361 165.003 131.416Z" fill="#F28F62"/>
</g>
<mask id="mask10_3676_3100" style="mask-type:luminance" maskUnits="userSpaceOnUse" x="0" y="0" width="300" height="300">
<path d="M0 0H300V300H0V0Z" fill="white"/>
</mask>
<g mask="url(#mask10_3676_3100)">
<path fill-rule="evenodd" clip-rule="evenodd" d="M161.154 105.757C160.505 103.407 160.713 95.8824 164.641 95.4111C167.234 95.0992 166.154 95.0038 168.55 96.4701C169.521 97.0642 173.515 100.566 173.964 101.621C175.064 104.21 180.76 103.612 179.16 106.521C177.425 109.677 181.409 110.662 179.619 116.35C178.787 118.996 176.74 123.318 173.839 123.966C173.042 124.144 173.451 123.617 173.436 122.071C173.394 117.902 175.211 115.623 171.3 112.764C165.754 108.711 170.763 104.591 165.246 104.591C162.885 104.591 161.548 106.023 161.235 105.871C161.154 105.831 161.179 105.848 161.154 105.757Z" fill="#2F2825"/>
</g>
<mask id="mask11_3676_3100" style="mask-type:luminance" maskUnits="userSpaceOnUse" x="0" y="0" width="300" height="300">
<path d="M0 0H300V300H0V0Z" fill="white"/>
</mask>
<g mask="url(#mask11_3676_3100)">
<path fill-rule="evenodd" clip-rule="evenodd" d="M173.877 111.934C175.331 111.934 176.281 113.537 175.998 115.514C175.717 117.491 174.309 119.094 172.855 119.094C171.401 119.094 170.451 117.491 170.733 115.514C171.015 113.537 172.423 111.934 173.877 111.934Z" fill="#F28F62"/>
</g>
<mask id="mask12_3676_3100" style="mask-type:luminance" maskUnits="userSpaceOnUse" x="0" y="0" width="300" height="300">
<path d="M0 0H300V300H0V0Z" fill="white"/>
</mask>
<g mask="url(#mask12_3676_3100)">
<path fill-rule="evenodd" clip-rule="evenodd" d="M146.444 50.3813L150.934 54.5977L141.145 65.0222L136.655 60.8059L146.444 50.3813Z" fill="#463D3B"/>
</g>
<mask id="mask13_3676_3100" style="mask-type:luminance" maskUnits="userSpaceOnUse" x="0" y="0" width="300" height="300">
<path d="M0 0H300V300H0V0Z" fill="white"/>
</mask>
<g mask="url(#mask13_3676_3100)">
<path fill-rule="evenodd" clip-rule="evenodd" d="M187.467 11.1921C199.247 22.2539 199.83 40.7712 188.768 52.5516C177.706 64.3321 159.189 64.9148 147.409 53.853C135.629 42.7912 135.045 24.2739 146.107 12.4934C157.169 0.712532 175.686 0.13026 187.467 11.1921Z" fill="#463D3B"/>
</g>
<mask id="mask14_3676_3100" style="mask-type:luminance" maskUnits="userSpaceOnUse" x="0" y="0" width="300" height="300">
<path d="M0 0H300V300H0V0Z" fill="white"/>
</mask>
<g mask="url(#mask14_3676_3100)">
<path fill-rule="evenodd" clip-rule="evenodd" d="M182.271 16.725C190.996 24.9177 191.427 38.6313 183.235 47.3559C175.043 56.0809 161.329 56.5122 152.604 48.3195C143.88 40.1272 143.448 26.4136 151.64 17.6886C159.833 8.96452 173.547 8.53315 182.271 16.725Z" fill="#54C6C8"/>
</g>
<mask id="mask15_3676_3100" style="mask-type:luminance" maskUnits="userSpaceOnUse" x="0" y="0" width="300" height="300">
<path d="M0 0H300V300H0V0Z" fill="white"/>
</mask>
<g mask="url(#mask15_3676_3100)">
<path fill-rule="evenodd" clip-rule="evenodd" d="M144.17 57.3007L144.171 57.3011C147.081 60.0343 147.227 64.6525 144.494 67.563L111.814 102.366C109.081 105.277 104.463 105.422 101.552 102.688C98.6413 99.9548 98.4958 95.3371 101.229 92.4261L133.909 57.6239C136.642 54.713 141.26 54.5675 144.17 57.3007Z" fill="#463D3B"/>
</g>
<mask id="mask16_3676_3100" style="mask-type:luminance" maskUnits="userSpaceOnUse" x="0" y="0" width="300" height="300">
<path d="M0 0H300V300H0V0Z" fill="white"/>
</mask>
<g mask="url(#mask16_3676_3100)">
<path fill-rule="evenodd" clip-rule="evenodd" d="M134.343 78.3734C131.783 76.6397 133.036 72.2647 130.835 73.4711C129.273 74.3261 131.291 82.1724 131.954 82.1511C134.207 82.0797 133.889 79.3938 134.343 78.3734Z" fill="#F28F62"/>
</g>
<mask id="mask17_3676_3100" style="mask-type:luminance" maskUnits="userSpaceOnUse" x="0" y="0" width="300" height="300">
<path d="M0 0H300V300H0V0Z" fill="white"/>
</mask>
<g mask="url(#mask17_3676_3100)">
<path fill-rule="evenodd" clip-rule="evenodd" d="M176.571 15.2315C181.942 19.4556 182.208 26.5261 177.165 31.0242C172.12 35.5224 163.676 35.7447 158.305 31.5206C152.933 27.297 152.667 20.2265 157.711 15.7283C162.755 11.2306 171.199 11.0079 176.571 15.2315Z" fill="#6ACDD4"/>
</g>
</g>
<defs>
<clipPath id="clip0_3676_3100">
<rect width="300" height="300" fill="white"/>
</clipPath>
</defs>
</svg>
