<svg width="30" height="30" viewBox="0 0 30 30" fill="none" xmlns="http://www.w3.org/2000/svg">
<path fill-rule="evenodd" clip-rule="evenodd" d="M15 2.5C16.6415 2.49999 18.267 2.82331 19.7836 3.45149C21.3001 4.07967 22.6781 5.00041 23.8389 6.16114C24.9996 7.32187 25.9203 8.69986 26.5485 10.2164C27.1767 11.733 27.5 13.3585 27.5 15C27.5 21.9036 21.9036 27.5 15 27.5C8.09648 27.5 2.50002 21.9036 2.50002 15C2.50002 8.09647 8.09648 2.5 15 2.5ZM16.25 16.25H13.75C10.6554 16.25 7.99857 18.1243 6.85266 20.7997C8.66578 23.3421 11.6393 25 15 25C18.3607 25 21.3342 23.3421 23.1474 20.7995C22.0015 18.1243 19.3447 16.25 16.25 16.25ZM15 6.25C12.9289 6.25 11.25 7.92895 11.25 10C11.25 12.0711 12.9289 13.75 15 13.75C17.0711 13.75 18.75 12.0711 18.75 10C18.75 7.92895 17.0711 6.25 15 6.25Z" fill="white"/>
</svg>
