<svg width="32" height="32" viewBox="0 0 32 32" fill="none" xmlns="http://www.w3.org/2000/svg">
<path d="M16.016 10.5907C16.8888 10.5893 17.7253 10.2415 18.3418 9.62372C18.9583 9.00596 19.3044 8.16875 19.304 7.296C19.3047 6.42302 18.9588 5.58547 18.3422 4.96742C17.7257 4.34938 16.889 4.00141 16.016 4C15.1428 4.00106 14.3057 4.34887 13.6889 4.96695C13.0721 5.58503 12.726 6.42278 12.7267 7.296C12.7263 8.16875 13.0724 9.00596 13.6889 9.62372C14.3054 10.2415 15.1419 10.5893 16.0147 10.5907" fill="white"/>
<path d="M25.1547 14.4181C24.6491 14.1252 24.0746 13.9724 23.4904 13.9753C22.9061 13.9783 22.3332 14.1369 21.8306 14.4349C21.3281 14.7329 20.9141 15.1595 20.6312 15.6707C20.3483 16.182 20.2068 16.7594 20.2213 17.3434C20.2573 18.8008 18.9467 19.5528 17.708 18.8008C17.66 18.7768 17.612 18.7408 17.552 18.7168C16.3013 18.0128 16.3013 16.5194 17.552 15.8274C18.0744 15.5439 18.5107 15.1248 18.8151 14.6142C19.1194 14.1037 19.2805 13.5205 19.2813 12.9261V12.8541C19.2453 11.3968 20.556 10.6461 21.7947 11.3968C22.2976 11.7047 22.8745 11.8708 23.4642 11.8774C24.0539 11.884 24.6343 11.7308 25.144 11.4341C25.7075 11.1079 26.1617 10.6219 26.449 10.0376C26.7364 9.45331 26.8442 8.79694 26.7587 8.15144C26.6575 7.31048 26.2355 6.54104 25.5808 6.00363C24.9261 5.46622 24.0892 5.20232 23.2446 5.26698C22.4001 5.33164 21.6131 5.71987 21.0478 6.35069C20.4825 6.98151 20.1826 7.80621 20.2107 8.65278C20.2453 10.1074 18.9347 10.8608 17.708 10.1074C17.194 9.78492 16.5988 9.61521 15.992 9.61811C15.388 9.61811 14.7947 9.78344 14.276 10.0954C13.036 10.8368 11.7373 10.0834 11.7733 8.63944C11.7851 8.04793 11.6392 7.46394 11.3507 6.94744C10.9936 6.31072 10.4339 5.81169 9.76053 5.52973C9.08717 5.24778 8.33887 5.1991 7.63466 5.39144C6.79158 5.62074 6.07351 6.17439 5.63733 6.93144C5.20385 7.69032 5.08842 8.58994 5.31628 9.43368C5.54414 10.2774 6.09675 10.9966 6.85333 11.4341C7.3636 11.7275 7.94318 11.8788 8.53176 11.8723C9.12034 11.8657 9.6964 11.7015 10.2 11.3968C11.44 10.6461 12.7387 11.3968 12.7027 12.8541V12.9261C12.7027 14.1794 13.3947 15.2661 14.4307 15.8274C15.6827 16.5314 15.6827 18.0248 14.4307 18.7168C14.3827 18.7408 14.3347 18.7768 14.288 18.8008C13.048 19.5408 11.7507 18.7874 11.7853 17.3434C11.7961 16.7376 11.6442 16.1399 11.3453 15.6128C11.1298 15.2382 10.8426 14.9098 10.5 14.6464C10.1574 14.3829 9.76627 14.1896 9.34891 14.0776C8.93156 13.9655 8.49619 13.9368 8.06774 13.9932C7.63929 14.0496 7.22616 14.1899 6.852 14.4061C6.09656 14.8509 5.54676 15.5754 5.32165 16.4226C5.09655 17.2699 5.21428 18.1717 5.64933 18.9328C5.86483 19.3074 6.15209 19.6358 6.49466 19.8992C6.83723 20.1626 7.22839 20.3559 7.64575 20.468C8.06311 20.5801 8.49847 20.6087 8.92692 20.5524C9.35537 20.496 9.7685 20.3557 10.1427 20.1394C10.1653 20.1261 10.1773 20.1141 10.2013 20.1021C11.4413 19.3514 12.74 20.1021 12.704 21.5594V21.6434C12.7051 22.516 13.0518 23.3526 13.6683 23.9701C14.2848 24.5876 15.1208 24.9356 15.9933 24.9381C16.8658 24.9356 17.7016 24.5875 18.3179 23.97C18.9342 23.3525 19.2806 22.5159 19.2813 21.6434V21.5714C19.2453 20.1141 20.5573 19.3621 21.796 20.1141C21.82 20.1274 21.8427 20.1394 21.8667 20.1621C23.44 21.0688 25.4533 20.5328 26.36 18.9568C27.2653 17.3434 26.7293 15.3274 25.156 14.4194" fill="white"/>
</svg>
