<svg width="90" height="90" viewBox="0 0 90 90" fill="none" xmlns="http://www.w3.org/2000/svg">
<path d="M44 10.0146C44.0078 10.5602 44.4526 11 45 11C46.8109 11 48.5881 11.1417 50.3213 11.4141C50.8613 11.4989 51.3675 11.1342 51.4609 10.5977C54.458 11.157 57.3203 12.0974 59.9961 13.3682C59.7559 13.8574 59.9514 14.4505 60.4385 14.6992C63.6303 16.3288 66.5316 18.4476 69.042 20.958C69.4287 21.3447 70.052 21.3479 70.4434 20.9688C72.4974 23.1427 74.2756 25.5793 75.7227 28.2236C75.2415 28.479 75.0523 29.0745 75.3008 29.5615C76.8956 32.6853 78.0218 36.0882 78.5859 39.6777C78.6709 40.2183 79.174 40.5883 79.7139 40.5117C79.8606 41.6581 79.9513 42.8217 79.9844 44C79.4393 44.0083 79 44.4529 79 45C79 46.8109 78.8583 48.5881 78.5859 50.3213C78.5011 50.861 78.8653 51.3671 79.4014 51.4609C78.842 54.458 77.9017 57.3203 76.6309 59.9961C76.1728 59.7717 75.6245 59.9286 75.3525 60.3496L75.3008 60.4385C73.7731 63.4308 71.8152 66.1675 69.5078 68.5664L69.042 69.042C68.6555 69.4285 68.6516 70.052 69.0303 70.4434C66.8562 72.4974 64.4198 74.2757 61.7754 75.7227C61.536 75.2721 60.9995 75.0782 60.5322 75.2598L60.4385 75.3008C57.3147 76.8956 53.9118 78.0218 50.3223 78.5859C49.7818 78.6709 49.4108 79.174 49.4873 79.7139C48.3409 79.8606 47.1773 79.9513 45.999 79.9844C45.9907 79.4393 45.5471 79 45 79C43.1891 79 41.4119 78.8583 39.6787 78.5859L39.5762 78.5752C39.0759 78.5479 38.6259 78.8992 38.5381 79.4014C35.541 78.8419 32.6787 77.9018 30.0029 76.6309C30.2428 76.1417 30.0485 75.5494 29.5615 75.3008C26.3697 73.6712 23.4684 71.5524 20.958 69.042L20.8828 68.9727C20.4941 68.6556 19.9223 68.675 19.5557 69.0303C17.5017 66.8563 15.7233 64.4198 14.2764 61.7754C14.7578 61.5201 14.9478 60.9256 14.6992 60.4385L14.4053 59.8496C12.9654 56.8887 11.943 53.6875 11.4141 50.3223L11.3926 50.2217C11.2649 49.7361 10.7913 49.4151 10.2852 49.4873C10.1384 48.341 10.0477 47.1773 10.0146 45.999C10.5602 45.9912 11 45.5474 11 45C11 43.4152 11.1088 41.8563 11.3184 40.3301L11.4141 39.6787C11.4989 39.1386 11.1343 38.6314 10.5977 38.5381C11.1571 35.5411 12.0973 32.6787 13.3682 30.0029C13.8265 30.2282 14.3753 30.0718 14.6475 29.6504L14.6992 29.5615C16.3288 26.3697 18.4476 23.4684 20.958 20.958C21.3449 20.5711 21.3484 19.947 20.9688 19.5557C23.1427 17.5017 25.5793 15.7233 28.2236 14.2764C28.4627 14.7277 29.0001 14.922 29.4678 14.7402L29.5615 14.6992C32.4903 13.2039 35.6645 12.1207 39.0078 11.5264L39.6777 11.4141C40.2186 11.3291 40.5889 10.8254 40.5117 10.2852C41.6581 10.1384 42.8218 10.0477 44 10.0146Z" stroke="#0040D6" stroke-width="2" stroke-linecap="round" stroke-dasharray="11"/>
<g clip-path="url(#clip0_3729_1926)">
<path d="M62 55.7273C62 57.4343 60.6162 58.8182 58.9091 58.8182H31.0909C29.3838 58.8182 28 57.4343 28 55.7273V38.7273C28 37.0202 29.3838 35.6364 31.0909 35.6364H37.2727L40.3636 31H49.6364L52.7273 35.6364H58.9091C60.6162 35.6364 62 37.0202 62 38.7273V55.7273Z" stroke="#0040D6" stroke-width="2" stroke-linecap="round" stroke-linejoin="round"/>
<path d="M52.0217 46.2867C52.0217 50.1648 48.8779 53.3086 44.9999 53.3086C41.1218 53.3086 37.978 50.1648 37.978 46.2867C37.978 42.4087 41.1218 39.2649 44.9999 39.2649C48.8779 39.2649 52.0217 42.4087 52.0217 46.2867Z" stroke="#0040D6" stroke-width="2" stroke-linecap="round" stroke-linejoin="round"/>
</g>
<defs>
<clipPath id="clip0_3729_1926">
<rect width="34" height="27.8182" fill="white" transform="translate(28 31)"/>
</clipPath>
</defs>
</svg>
