<svg width="24" height="17" viewBox="0 0 24 17" fill="none" xmlns="http://www.w3.org/2000/svg">
<path fill-rule="evenodd" clip-rule="evenodd" d="M23.4481 0.402075C24.1246 0.98415 24.1879 1.9911 23.5899 2.6539L11.0416 16.4622C10.8967 16.6218 10.7204 16.7514 10.5232 16.8434C10.3259 16.9355 10.1117 16.9881 9.89325 16.9982C9.67475 17.0083 9.45639 16.9757 9.25107 16.9022C9.04575 16.8288 8.85764 16.716 8.69785 16.5706L0.514197 9.13533C0.199372 8.84651 0.0148091 8.44811 0.000852914 8.02722C-0.0131033 7.60632 0.144682 7.19717 0.439719 6.88919C0.734756 6.58121 1.14305 6.39946 1.57534 6.38367C2.00764 6.36787 2.42877 6.51932 2.7467 6.8049L9.70825 13.1143L21.1435 0.538034C21.2861 0.381031 21.4591 0.252948 21.6526 0.161121C21.8461 0.0692935 22.0563 0.0155255 22.2712 0.00289623C22.4861 -0.00973301 22.7014 0.0190248 22.9048 0.0875222C23.1083 0.156019 23.2958 0.262911 23.4568 0.402075H23.4481Z" fill="white"/>
</svg>
