<svg width="20" height="20" viewBox="0 0 20 20" fill="none" xmlns="http://www.w3.org/2000/svg">
<path fill-rule="evenodd" clip-rule="evenodd" d="M4.65499 3.82168C4.16666 4.31001 4.16666 5.09501 4.16666 6.66668V14.1667C4.16666 15.7383 4.16666 16.5233 4.65499 17.0117C5.14332 17.5 5.92832 17.5 7.49999 17.5H12.5C14.0717 17.5 14.8567 17.5 15.345 17.0117C15.8333 16.5233 15.8333 15.7383 15.8333 14.1667V6.66668C15.8333 5.09501 15.8333 4.31001 15.345 3.82168C14.8567 3.33334 14.0717 3.33334 12.5 3.33334H7.49999C5.92832 3.33334 5.14332 3.33334 4.65499 3.82168ZM7.49999 6.66668C7.27898 6.66668 7.06701 6.75447 6.91073 6.91075C6.75445 7.06703 6.66666 7.279 6.66666 7.50001C6.66666 7.72102 6.75445 7.93299 6.91073 8.08927C7.06701 8.24555 7.27898 8.33334 7.49999 8.33334H12.5C12.721 8.33334 12.933 8.24555 13.0892 8.08927C13.2455 7.93299 13.3333 7.72102 13.3333 7.50001C13.3333 7.279 13.2455 7.06703 13.0892 6.91075C12.933 6.75447 12.721 6.66668 12.5 6.66668H7.49999ZM7.49999 10C7.27898 10 7.06701 10.0878 6.91073 10.2441C6.75445 10.4004 6.66666 10.6123 6.66666 10.8333C6.66666 11.0544 6.75445 11.2663 6.91073 11.4226C7.06701 11.5789 7.27898 11.6667 7.49999 11.6667H12.5C12.721 11.6667 12.933 11.5789 13.0892 11.4226C13.2455 11.2663 13.3333 11.0544 13.3333 10.8333C13.3333 10.6123 13.2455 10.4004 13.0892 10.2441C12.933 10.0878 12.721 10 12.5 10H7.49999ZM7.49999 13.3333C7.27898 13.3333 7.06701 13.4211 6.91073 13.5774C6.75445 13.7337 6.66666 13.9457 6.66666 14.1667C6.66666 14.3877 6.75445 14.5997 6.91073 14.7559C7.06701 14.9122 7.27898 15 7.49999 15H10.8333C11.0543 15 11.2663 14.9122 11.4226 14.7559C11.5789 14.5997 11.6667 14.3877 11.6667 14.1667C11.6667 13.9457 11.5789 13.7337 11.4226 13.5774C11.2663 13.4211 11.0543 13.3333 10.8333 13.3333H7.49999Z" fill="#0040D6"/>
</svg>
