<svg width="16" height="16" viewBox="0 0 16 16" fill="none" xmlns="http://www.w3.org/2000/svg">
<path d="M9.5 13C9.5 13.3978 9.34196 13.7794 9.06066 14.0607C8.77936 14.342 8.39782 14.5 8 14.5C7.60218 14.5 7.22064 14.342 6.93934 14.0607C6.65804 13.7794 6.5 13.3978 6.5 13C6.5 12.6022 6.65804 12.2206 6.93934 11.9393C7.22064 11.658 7.60218 11.5 8 11.5C8.39782 11.5 8.77936 11.658 9.06066 11.9393C9.34196 12.2206 9.5 12.6022 9.5 13ZM9.5 8C9.5 8.39782 9.34196 8.77936 9.06066 9.06066C8.77936 9.34196 8.39782 9.5 8 9.5C7.60218 9.5 7.22064 9.34196 6.93934 9.06066C6.65804 8.77936 6.5 8.39782 6.5 8C6.5 7.60218 6.65804 7.22064 6.93934 6.93934C7.22064 6.65804 7.60218 6.5 8 6.5C8.39782 6.5 8.77936 6.65804 9.06066 6.93934C9.34196 7.22064 9.5 7.60218 9.5 8ZM9.5 3C9.5 3.39782 9.34196 3.77936 9.06066 4.06066C8.77936 4.34196 8.39782 4.5 8 4.5C7.60218 4.5 7.22064 4.34196 6.93934 4.06066C6.65804 3.77936 6.5 3.39782 6.5 3C6.5 2.60218 6.65804 2.22064 6.93934 1.93934C7.22064 1.65804 7.60218 1.5 8 1.5C8.39782 1.5 8.77936 1.65804 9.06066 1.93934C9.34196 2.22064 9.5 2.60218 9.5 3Z" fill="black" fill-opacity="0.7"/>
<path d="M8 12C8.26522 12 8.51949 12.1054 8.70703 12.293C8.89457 12.4805 9 12.7348 9 13C9 13.2652 8.89457 13.5195 8.70703 13.707C8.51949 13.8946 8.26522 14 8 14C7.73478 14 7.48051 13.8946 7.29297 13.707C7.10543 13.5195 7 13.2652 7 13C7 12.7348 7.10543 12.4805 7.29297 12.293C7.48051 12.1054 7.73478 12 8 12ZM8 7C8.26522 7 8.51949 7.10543 8.70703 7.29297C8.89457 7.4805 9 7.73478 9 8C9 8.26522 8.89457 8.5195 8.70703 8.70703C8.51949 8.89457 8.26522 9 8 9C7.73478 9 7.48051 8.89457 7.29297 8.70703C7.10543 8.5195 7 8.26522 7 8C7 7.73478 7.10543 7.4805 7.29297 7.29297C7.48051 7.10543 7.73478 7 8 7ZM8 2C8.26522 2 8.51949 2.10543 8.70703 2.29297C8.89457 2.48051 9 2.73478 9 3C9 3.26522 8.89457 3.5195 8.70703 3.70703C8.5195 3.89457 8.26522 4 8 4C7.73478 4 7.4805 3.89457 7.29297 3.70703C7.10543 3.51949 7 3.26522 7 3C7 2.73478 7.10543 2.48051 7.29297 2.29297C7.45711 2.12883 7.67237 2.02757 7.90137 2.00488L8 2Z" stroke="black" stroke-opacity="0.7"/>
</svg>
