<svg width="105" height="65" viewBox="0 0 105 65" fill="none" xmlns="http://www.w3.org/2000/svg">
<g filter="url(#filter0_d_3676_2944)">
<path d="M37.9049 11.1763C40.411 10.7035 42.353 12.2623 43.9007 14.3751C45.4592 16.5027 46.8115 19.4484 48.1206 22.2935C49.4504 25.1835 50.7372 27.9731 52.1872 29.9526C53.6482 31.947 55.0843 32.8674 56.6957 32.5634C58.3851 32.2446 59.6059 30.8775 60.5922 28.6591C61.5751 26.448 62.2314 23.6009 62.908 20.6544C63.5749 17.7506 64.2623 14.7468 65.3164 12.3759C66.3672 10.0124 67.877 8.06574 70.305 7.60766C72.6999 7.15582 74.5278 8.17434 75.9837 9.75814C77.4072 11.3066 78.5593 13.4831 79.6532 15.5384C80.7741 17.6445 81.837 19.6297 83.104 21.0081C84.2174 22.2193 85.4149 22.883 86.9026 22.764L87.1823 24.2466C85.0284 24.4793 83.3535 23.4962 81.9997 22.0234C80.5762 20.4749 79.4232 18.2988 78.3293 16.2433C77.2084 14.1374 76.1464 12.1518 74.8794 10.7735C73.6447 9.43033 72.3057 8.75666 70.5831 9.08166C68.8936 9.40039 67.6729 10.7676 66.6866 12.986C65.7037 15.1971 65.0474 18.0442 64.3707 20.9906C63.7039 23.8945 63.0164 26.8982 61.9624 29.2691C60.9116 31.6326 59.4018 33.5793 56.9738 34.0374C54.4678 34.5102 52.5257 32.9514 50.978 30.8386C49.4195 28.711 48.0672 25.7653 46.7581 22.9202C45.4283 20.0302 44.1415 17.2406 42.6915 15.2611C41.2306 13.2667 39.7944 12.3463 38.183 12.6503C36.2873 13.008 35.2558 13.7462 34.5363 14.6601C33.7664 15.638 33.3385 16.8117 32.6678 18.2464C32.0166 19.6394 31.1806 21.1487 29.6289 22.4978C28.1166 23.8125 25.9751 24.9291 22.7733 25.6982C21.9389 26.7135 21.2389 28.2257 20.5435 30.0554C20.1793 31.0135 19.8266 32.0321 19.4564 33.0848C19.0877 34.1329 18.7037 35.2113 18.2852 36.2692C16.6394 40.43 14.3321 44.6265 9.77808 45.4857L9.49999 44.0117C13.1809 43.3172 15.2344 39.9036 16.8902 35.7175C17.2971 34.6889 17.6722 33.6342 18.0407 32.5867C18.4075 31.5437 18.7695 30.503 19.1421 29.5227C19.8796 27.5822 20.6996 25.7669 21.7995 24.5294L21.9585 24.3504L22.1911 24.2975C25.3527 23.5679 27.323 22.515 28.6451 21.3656C29.9658 20.2174 30.6942 18.9264 31.3095 17.6102C31.9053 16.3358 32.4464 14.8903 33.3576 13.7326C34.3197 12.5106 35.6831 11.5955 37.9049 11.1763Z" fill="#E51300"/>
</g>
<defs>
<filter id="filter0_d_3676_2944" x="0" y="0" width="104.682" height="64.9857" filterUnits="userSpaceOnUse" color-interpolation-filters="sRGB">
<feFlood flood-opacity="0" result="BackgroundImageFix"/>
<feColorMatrix in="SourceAlpha" type="matrix" values="0 0 0 0 0 0 0 0 0 0 0 0 0 0 0 0 0 0 127 0" result="hardAlpha"/>
<feOffset dx="4" dy="6"/>
<feGaussianBlur stdDeviation="6.75"/>
<feComposite in2="hardAlpha" operator="out"/>
<feColorMatrix type="matrix" values="0 0 0 0 0.899038 0 0 0 0 0.0731776 0 0 0 0 0 0 0 0 0.5 0"/>
<feBlend mode="normal" in2="BackgroundImageFix" result="effect1_dropShadow_3676_2944"/>
<feBlend mode="normal" in="SourceGraphic" in2="effect1_dropShadow_3676_2944" result="shape"/>
</filter>
</defs>
</svg>
